<svg xmlns="http://www.w3.org/2000/svg" viewBox="0 0 256 256" role="img" aria-label="Guardian Warriors emblem">
  <defs>
    <linearGradient id="gold" x1="0" x2="1">
      <stop offset="0" stop-color="#f8e8b2"/>
      <stop offset="0.5" stop-color="#f3c969"/>
      <stop offset="1" stop-color="#cf9f3d"/>
    </linearGradient>
  </defs>
  <rect width="256" height="256" rx="48" fill="#08152a"/>
  <g fill="none" stroke="url(#gold)" stroke-linecap="round" stroke-linejoin="round">
    <path d="M128 44l-18 20h36z" stroke-width="10"/>
    <path d="M128 64v24" stroke-width="10"/>
    <path d="M128 88l-24 28v60l24 22 24-22v-60z" stroke-width="10"/>
    <path d="M128 102v92" stroke-width="8"/>
    <path d="M118 136h20" stroke-width="8"/>
    <path d="M82 88c-20 8-31 22-35 40 24-2 40-13 50-30" stroke-width="10"/>
    <path d="M174 88c20 8 31 22 35 40-24-2-40-13-50-30" stroke-width="10"/>
    <path d="M97 118c-13 6-22 16-26 29 18-2 30-9 38-21" stroke-width="8"/>
    <path d="M159 118c13 6 22 16 26 29-18-2-30-9-38-21" stroke-width="8"/>
    <path d="M157 129l35 18v36c0 21-15 35-35 42-20-7-35-21-35-42v-36z" stroke-width="8"/>
    <path d="M157 129v96" stroke-width="6"/>
  </g>
</svg>
