<?xml version="1.0" encoding="UTF-8"?>
<svg xmlns="http://www.w3.org/2000/svg" width="512" height="512" viewBox="0 0 512 512" role="img" aria-label="Guardian Warriors guardian warrior mark">
  <title>Guardian Warriors</title>
  <defs>
    <linearGradient id="gold" x1="130" y1="50" x2="382" y2="462" gradientUnits="userSpaceOnUse">
      <stop offset="0" stop-color="#fff2b8"/>
      <stop offset="0.32" stop-color="#f3c969"/>
      <stop offset="0.68" stop-color="#b77a22"/>
      <stop offset="1" stop-color="#ffe08a"/>
    </linearGradient>
    <linearGradient id="deepGold" x1="165" y1="62" x2="350" y2="450" gradientUnits="userSpaceOnUse">
      <stop offset="0" stop-color="#ffe9a6"/>
      <stop offset="0.54" stop-color="#d49a32"/>
      <stop offset="1" stop-color="#754811"/>
    </linearGradient>
    <filter id="shadow" x="-20%" y="-20%" width="140%" height="145%" color-interpolation-filters="sRGB">
      <feDropShadow dx="0" dy="12" stdDeviation="10" flood-color="#02050a" flood-opacity="0.45"/>
    </filter>
  </defs>
  <rect width="512" height="512" rx="96" fill="#08152a"/>
  <g filter="url(#shadow)" stroke="#070b12" stroke-width="10" stroke-linejoin="round" stroke-linecap="round">
    <path fill="url(#gold)" d="M230 128c-53-11-103-42-138-84 2 58 35 104 90 134-50-2-92-17-126-45 14 58 59 96 128 112-37 8-76 5-116-10 35 50 84 74 147 73z"/>
    <path fill="url(#gold)" d="M282 128c53-11 103-42 138-84-2 58-35 104-90 134 50-2 92-17 126-45-14 58-59 96-128 112 37 8 76 5 116-10-35 50-84 74-147 73z"/>
    <path fill="url(#deepGold)" d="M256 88c-59 0-104 43-104 103v159c0 54 42 90 104 124 62-34 104-70 104-124V191c0-60-45-103-104-103z"/>
    <path fill="#08152a" d="M256 119c-40 0-72 29-72 72v144c0 37 27 61 72 88 45-27 72-51 72-88V191c0-43-32-72-72-72z"/>
    <path fill="url(#gold)" d="M207 248h98v192c-16 11-32 21-49 30-17-9-33-19-49-30z"/>
    <path fill="#08152a" d="M233 248h46v188c-8 5-16 10-23 14-7-4-15-9-23-14z"/>
    <path fill="url(#gold)" d="M196 198c0-35 26-64 60-64s60 29 60 64v22H196z"/>
    <path fill="#08152a" d="M222 196c0-19 15-36 34-36s34 17 34 36v24h-68z"/>
    <path fill="url(#gold)" d="M256 43l18 34 38 7-27 28 5 39-34-17-34 17 5-39-27-28 38-7z"/>
    <path fill="url(#gold)" d="M154 251h204v37H154z"/>
    <path fill="url(#gold)" d="M334 270l86 34v90c0 42-30 69-86 95-56-26-86-53-86-95v-90z"/>
    <path fill="#08152a" d="M334 311l49 19v59c0 22-14 37-49 55-35-18-49-33-49-55v-59z"/>
    <path fill="url(#gold)" d="M183 270h42v177h-42z"/>
    <path fill="#08152a" d="M207 279v161"/>
  </g>
</svg>
